<?xml version="1.0" standalone="no"?><!DOCTYPE svg PUBLIC "-//W3C//DTD SVG 1.1//EN" "http://www.w3.org/Graphics/SVG/1.1/DTD/svg11.dtd"><svg t="1638498711996" class="icon" viewBox="0 0 1024 1024" version="1.1" xmlns="http://www.w3.org/2000/svg" p-id="3361" data-darkreader-inline-fill="" xmlns:xlink="http://www.w3.org/1999/xlink" width="200" height="200"><defs><style type="text/css"></style></defs><path d="M0 0h1024v1024H0V0m510.848 189.056l0.448 14.72c-24.384 25.152-56.576 41.088-80.064 67.392-71.232 69.952-111.936 172.16-101.184 272.128 10.816 80.32 63.616 148.48 125.888 197.376 14.144 12.032 31.872 19.776 44.544 33.472 11.392 22.656 10.88 48.832 13.568 73.536 7.104 1.92 14.208 3.904 21.312 5.952 0.192-29.888-8.512-65.344 14.08-89.536 87.488-49.408 154.624-142.656 155.072-245.568 0.384-107.392-62.912-206.464-145.6-271.104-21.056-14.912-33.664-37.696-48.064-58.368z" fill="#9ECD7F" p-id="3362" style="--darkreader-inline-fill: #4a6628;" data-darkreader-inline-fill=""></path><path d="M510.848 189.056c14.4 20.672 27.008 43.456 48.064 58.368 82.688 64.64 145.984 163.712 145.6 271.104-0.448 102.912-67.584 196.16-155.072 245.568-13.376-14.144-37.184-24.512-35.968-47.104-1.472-171.008 2.688-342.208-2.176-513.216l-0.448-14.72z" fill="#FFFFFF" p-id="3363" style="--darkreader-inline-fill: #161718;" data-darkreader-inline-fill=""></path><path d="M431.232 271.168c23.488-26.304 55.68-42.24 80.064-67.392 4.864 171.008 0.704 342.208 2.176 513.216-1.216 22.592 22.592 32.96 35.968 47.104-22.592 24.192-13.888 59.648-14.08 89.536-7.104-2.048-14.208-4.032-21.312-5.952-2.688-24.704-2.176-50.88-13.568-73.536-12.672-13.696-30.4-21.44-44.544-33.472-62.272-48.896-115.072-117.056-125.888-197.376-10.752-99.968 29.952-202.176 101.184-272.128z" fill="#EBF1E0" p-id="3364" style="--darkreader-inline-fill: #293116;" data-darkreader-inline-fill=""></path></svg>