<?xml version="1.0" standalone="no"?><!DOCTYPE svg PUBLIC "-//W3C//DTD SVG 1.1//EN" "http://www.w3.org/Graphics/SVG/1.1/DTD/svg11.dtd"><svg t="1656333251487" viewBox="0 0 1024 1024" version="1.1" xmlns="http://www.w3.org/2000/svg" p-id="2011" xmlns:xlink="http://www.w3.org/1999/xlink" width="16em" height="16em"><defs></defs><path d="M356.774 578.668C279.812 528.088 229 440.978 229 342c0-156.297 126.703-283 283-283s283 126.703 283 283c0 98.978-50.812 186.088-127.774 236.668C808.213 638.98 907 778.953 907 942c0 24.3-19.7 44-44 44s-44-19.7-44-44c0-169.551-137.449-307-307-307S205 772.449 205 942c0 24.3-19.7 44-44 44s-44-19.7-44-44c0-163.047 98.787-303.02 239.774-363.332zM512 537c107.696 0 195-87.304 195-195s-87.304-195-195-195-195 87.304-195 195 87.304 195 195 195z" p-id="2012"></path></svg>