<?xml version="1.0" standalone="no"?><!DOCTYPE svg PUBLIC "-//W3C//DTD SVG 1.1//EN" "http://www.w3.org/Graphics/SVG/1.1/DTD/svg11.dtd"><svg t="1656333476563" viewBox="0 0 1024 1024" version="1.1" xmlns="http://www.w3.org/2000/svg" p-id="9533" xmlns:xlink="http://www.w3.org/1999/xlink" width="16em" height="16em"><defs></defs><path d="M25.554944 971.99616c0 22.55872 27.7504 51.110912 51.110912 51.110912l868.87936 0c23.358464 0 51.110912-28.552192 51.110912-51.110912l0-664.41216L25.554944 307.584 25.554944 971.99616zM383.32928 460.915712l306.663424 0 0 102.196224L536.660992 920.860672l-102.221824 0L587.77088 563.111936 383.32928 563.111936 383.32928 460.915712zM945.545216 103.141376 792.213504 103.141376l0-102.247424-102.221824 0L689.99168 103.141376 332.218368 103.141376l0-102.247424-102.2208 0L229.997568 103.141376 76.665856 103.141376c-23.360512 0-51.110912 28.548096-51.110912 51.08224l0 102.224896 971.101184 0 0-92.015616C996.656128 141.923328 983.277568 103.141376 945.545216 103.141376z" p-id="9534"></path></svg>