<?xml version="1.0" standalone="no"?><!DOCTYPE svg PUBLIC "-//W3C//DTD SVG 1.1//EN" "http://www.w3.org/Graphics/SVG/1.1/DTD/svg11.dtd"><svg t="1656409470554" viewBox="0 0 1024 1024" version="1.1" xmlns="http://www.w3.org/2000/svg" p-id="1844" xmlns:xlink="http://www.w3.org/1999/xlink" width="16" height="16"><defs></defs><path d="M512.170667 85.333333c-224 0-407.722667 172.8-425.130667 392.405334l228.693333 94.549333a120.106667 120.106667 0 0 1 67.968-20.992c2.261333 0 4.437333 0.128 6.698667 0.213333l101.717333-147.285333v-2.090667c0-88.746667 72.106667-160.853333 160.853334-160.853333 88.704 0 160.853333 72.192 160.853333 160.938667s-72.192 160.896-160.853333 160.896h-3.712l-144.938667 103.509333c0 1.834667 0.128 3.754667 0.128 5.674667a120.576 120.576 0 0 1-120.533333 120.746666 121.301333 121.301333 0 0 1-118.4-96.981333l-163.754667-67.797333C152.448 807.338667 316.885333 938.666667 512.213333 938.666667c235.605333 0 426.581333-191.018667 426.581334-426.666667 0-235.605333-191.018667-426.666667-426.624-426.666667zM301.994667 711.125333c9.301333 19.285333 25.386667 35.498667 46.677333 44.416a90.709333 90.709333 0 0 0 69.717333-167.338666 90.410667 90.410667 0 0 0-66.773333-1.066667l54.144 22.4a66.688 66.688 0 0 1 35.84 87.296 66.688 66.688 0 0 1-87.210667 35.968l-52.394666-21.674667z m458.24-309.12a107.349333 107.349333 0 0 0-107.221334-107.178666 107.264 107.264 0 0 0 0 214.4 107.221333 107.221333 0 0 0 107.178667-107.221334zM653.226667 321.28a80.597333 80.597333 0 1 1-0.085334 161.024 80.597333 80.597333 0 0 1 0.085334-161.024z" p-id="1845"></path></svg>