<?xml version="1.0" standalone="no"?><!DOCTYPE svg PUBLIC "-//W3C//DTD SVG 1.1//EN" "http://www.w3.org/Graphics/SVG/1.1/DTD/svg11.dtd"><svg t="1658750693066" viewBox="0 0 1077 1024" version="1.1" xmlns="http://www.w3.org/2000/svg" p-id="2496" xmlns:xlink="http://www.w3.org/1999/xlink" width="16.828125" height="16"><defs></defs><path d="M463.5648 0a89.6 89.6 0 0 1 58.9952 22.1568l2.816 2.5856L817.024 302.6688a89.6 89.6 0 0 1 27.712 61.0048l0.0768 3.8528V537.6a38.4 38.4 0 0 1-76.736 2.2528L768 537.6V396.8H531.2a89.6 89.6 0 0 1-89.5488-86.528L441.6 307.2V76.8H89.6a12.8 12.8 0 0 0-12.7104 11.3024L76.8 89.6v793.6a12.8 12.8 0 0 0 11.3024 12.7104L89.6 896h183.808a38.4 38.4 0 0 1 2.2656 76.736L273.408 972.8H89.6a89.6 89.6 0 0 1-89.5488-86.528L0 883.2V89.6a89.6 89.6 0 0 1 86.528-89.5488L89.6 0h373.9648z m260.3136 320L518.4 124.1728V307.2a12.8 12.8 0 0 0 11.3024 12.7104L531.2 320h192.6784z" p-id="2497"></path><path d="M620.8 524.8a38.4 38.4 0 0 1 38.336 36.1472L659.2 563.2v153.6H806.4a38.4 38.4 0 0 1 2.2528 76.736L806.4 793.6H659.2v140.8a38.4 38.4 0 0 1-76.736 2.2528L582.4 934.4V793.6H435.2a38.4 38.4 0 0 1-2.2528-76.736L435.2 716.8h147.2V563.2a38.4 38.4 0 0 1 38.4-38.4z" p-id="2498"></path></svg>