<?xml version="1.0" standalone="no"?><!DOCTYPE svg PUBLIC "-//W3C//DTD SVG 1.1//EN" "http://www.w3.org/Graphics/SVG/1.1/DTD/svg11.dtd"><svg t="1656402454663" viewBox="0 0 1024 1024" version="1.1" xmlns="http://www.w3.org/2000/svg" p-id="1209" xmlns:xlink="http://www.w3.org/1999/xlink" width="16em" height="16em"><defs></defs><path d="M876.544 502.784l-100.352-99.84V260.608c0-7.168-5.632-12.8-12.8-12.8h-142.848l-100.352-99.84c-5.12-5.12-13.312-5.12-18.432 0L401.92 247.808H260.608c-7.168 0-12.8 5.632-12.8 12.8v141.312L147.456 502.784c-5.12 5.12-5.12 13.312 0 18.432l100.352 99.84v142.336c0 7.168 5.632 12.8 12.8 12.8h141.312l100.864 100.864c5.12 5.12 13.312 5.12 18.432 0l100.864-100.864h142.336c7.168 0 12.8-5.632 12.8-12.8v-142.336l99.84-99.84c4.608-5.12 4.608-13.312-0.512-18.432zM511.488 742.4c-127.488 0-230.4-102.912-230.4-230.4 0-126.976 103.424-230.4 230.4-230.4 127.488 0 230.4 102.912 230.4 230.4 0 126.976-102.912 230.4-230.4 230.4z m0-414.72c-101.888 0-184.32 82.432-184.32 184.32s82.432 184.32 184.32 184.32 184.32-82.432 184.32-184.32-82.432-184.32-184.32-184.32z" p-id="1210"></path></svg>