<?xml version="1.0" standalone="no"?><!DOCTYPE svg PUBLIC "-//W3C//DTD SVG 1.1//EN" "http://www.w3.org/Graphics/SVG/1.1/DTD/svg11.dtd"><svg t="1656332056979" viewBox="0 0 1024 1024" version="1.1" xmlns="http://www.w3.org/2000/svg" p-id="5734" xmlns:xlink="http://www.w3.org/1999/xlink" width="16em" height="16em"><defs></defs><path d="M892.8 351.1c-20.8-49.2-50.6-93.4-88.6-131.4-37.9-37.9-82.1-67.7-131.4-88.6-51-21.6-105.1-32.5-160.9-32.5S402 109.5 351 131.1c-49.2 20.8-93.4 50.6-131.4 88.6-37.9 37.9-67.7 82.1-88.6 131.4-21.6 51-32.5 105.1-32.5 160.9s10.9 109.9 32.5 160.9c20.8 49.2 50.6 93.4 88.6 131.4 37.9 37.9 82.1 67.7 131.4 88.6 51 21.6 105.1 32.5 160.9 32.5s109.9-10.9 160.9-32.5c49.2-20.8 93.4-50.6 131.4-88.6 37.9-37.9 67.7-82.1 88.6-131.4 21.6-51 32.5-105.1 32.5-160.9s-10.9-109.9-32.5-160.9z m-131 410.7C695.1 828.6 606.4 865.3 512 865.3s-183.1-36.8-249.8-103.5C195.4 695.1 158.7 606.4 158.7 512s36.8-183.1 103.5-249.8c66.7-66.7 155.5-103.5 249.8-103.5s183.1 36.8 249.8 103.5c66.7 66.7 103.5 155.5 103.5 249.8 0 94.4-36.7 183.1-103.5 249.8z" p-id="5735"></path><path d="M512.9 240.8c-83 0-150.6 67.6-150.6 150.6 0 16.6 13.4 30 30 30s30-13.4 30-30c0-50 40.6-90.6 90.6-90.6s90.6 40.6 90.6 90.6c0 7-0.5 12.7-1.6 17.4-0.4 1.8-0.9 3.7-1.4 5.5-5 18.1-16.8 34.1-33.2 45.2-80.9 54.9-85.1 137.2-85.2 140.6-0.7 16.6 12.2 30.5 28.8 31.2h1.2c16 0 29.3-12.6 30-28.8 0-0.1 0.9-13.4 7.9-30.9 10.2-25.4 27.3-46.4 51-62.5 28.1-19 48.4-47 57.3-78.7 0.7-2.5 1.4-5.2 2-7.8 2.2-9.3 3.3-19.5 3.3-31.2-0.1-83-67.7-150.6-150.7-150.6z" p-id="5736"></path><path d="M512 718.4m-42.3 0a42.3 42.3 0 1 0 84.6 0 42.3 42.3 0 1 0-84.6 0Z" p-id="5737"></path></svg>