<?xml version="1.0" standalone="no"?><!DOCTYPE svg PUBLIC "-//W3C//DTD SVG 1.1//EN" "http://www.w3.org/Graphics/SVG/1.1/DTD/svg11.dtd"><svg t="1656332208221" viewBox="0 0 1024 1024" version="1.1" xmlns="http://www.w3.org/2000/svg" p-id="942" xmlns:xlink="http://www.w3.org/1999/xlink" width="16em" height="16em"><defs></defs><path d="M517.088 276.192c195.136 0 380.96 146.592 380.96 236.48 0 89.824-185.824 236.416-380.96 236.416-195.136 0-380.96-146.592-380.96-236.448s185.824-236.448 380.96-236.448m0-52c-232.32 0-436.736 165.504-436.736 293.184 0 127.68 204.416 288.448 436.736 288.448 232.288 0 436.704-160.768 436.704-288.448 0-127.68-204.416-293.184-436.704-293.184" p-id="943"></path><path d="M507.776 413.344c60.416 0 106.88 47.296 106.88 104.032s-46.464 104.032-102.208 104.032h-9.28c-55.776 0-102.24-47.296-102.24-104.032s46.464-104.032 106.88-104.032l-4.672-4.736 4.64 4.736z m0 264.8c92.928 0 171.904-75.648 171.904-165.504s-74.336-165.504-167.232-165.504h-4.672c-92.896 0-167.232 75.648-167.232 165.504 0 94.592 74.336 165.504 167.232 165.504z" p-id="944"></path><path d="M742.4 155.68l-539.456 656a32 32 0 0 0 49.44 40.64l539.456-656a32 32 0 0 0-49.44-40.64z" p-id="945"></path></svg>